<svg width="26" height="29" viewBox="0 0 26 29" fill="none" xmlns="http://www.w3.org/2000/svg">
<path d="M3.27202 8.3169C3.27202 8.14189 3.41384 8 3.58892 8H5.80723C5.94984 8 6.0766 8.09737 6.11225 8.23688L6.38161 9.2676H24.7341C25.5383 9.2676 26.18 10.0698 25.9542 10.8783L23.8151 18.4855C23.6606 19.0321 23.1615 19.4084 22.5951 19.4084H9.02773L9.85564 22.5774H22.9199C23.0942 22.5774 23.2368 22.72 23.2368 22.8943C23.2368 23.0686 23.0942 23.2112 22.9199 23.2112H9.57439C9.46743 23.2112 9.34067 23.1122 9.30502 22.9736L5.56163 8.6338H3.55327C3.41384 8.6338 3.23637 8.49199 3.23637 8.3169H3.27202ZM22.5951 18.7746C22.8763 18.7746 23.1259 18.5845 23.2051 18.3112L25.3442 10.7067C25.4551 10.3027 25.154 9.9014 24.7341 9.9014H6.54799L8.86136 18.7746H22.5951ZM12.1452 26.3802C12.1452 27.43 11.2936 28.2817 10.2438 28.2817C9.19411 28.2817 8.34244 27.43 8.34244 26.3802C8.34244 25.3305 9.19411 24.4788 10.2438 24.4788C11.2936 24.4788 12.1452 25.3305 12.1452 26.3802ZM10.2438 25.1126C9.5427 25.1126 8.97624 25.6791 8.97624 26.3802C8.97624 27.0814 9.5427 27.6479 10.2438 27.6479C10.945 27.6479 11.5114 27.0814 11.5114 26.3802C11.5114 25.6791 10.945 25.1126 10.2438 25.1126ZM19.7509 26.3802C19.7509 25.3305 20.6025 24.4788 21.6523 24.4788C22.702 24.4788 23.5537 25.3305 23.5537 26.3802C23.5537 27.43 22.702 28.2817 21.6523 28.2817C20.6025 28.2817 19.7509 27.43 19.7509 26.3802ZM21.6523 27.6479C22.3534 27.6479 22.9199 27.0814 22.9199 26.3802C22.9199 25.6791 22.3534 25.1126 21.6523 25.1126C20.9511 25.1126 20.3847 25.6791 20.3847 26.3802C20.3847 27.0814 20.9511 27.6479 21.6523 27.6479ZM5.49033 13.0704C5.66462 13.0704 5.80723 13.213 5.80723 13.3873C5.80723 13.5616 5.66462 13.7042 5.49033 13.7042H1.05372C0.878709 13.7042 0.736816 13.5616 0.736816 13.3873C0.736816 13.213 0.878709 13.0704 1.05372 13.0704H5.49033ZM6.12413 15.6056C6.29843 15.6056 6.44103 15.7482 6.44103 15.9225C6.44103 16.0968 6.29843 16.2394 6.12413 16.2394H1.05372C0.878709 16.2394 0.736816 16.0968 0.736816 15.9225C0.736816 15.7482 0.878709 15.6056 1.05372 15.6056H6.12413ZM6.75793 18.1408C6.93223 18.1408 7.07483 18.2834 7.07483 18.4577C7.07483 18.632 6.93223 18.7746 6.75793 18.7746H1.05372C0.878709 18.7746 0.736816 18.632 0.736816 18.4577C0.736816 18.2834 0.878709 18.1408 1.05372 18.1408H6.75793Z" fill="#D37130"/>
</svg>
