<svg width="76" height="61" viewBox="0 0 76 61" fill="none" xmlns="http://www.w3.org/2000/svg">
<path d="M73.6591 1.0704C74.0223 1.23781 74.3622 1.48142 74.6434 1.78625C74.913 2.09108 75.1356 2.45213 75.288 2.84691C75.4286 3.24293 75.5106 3.6652 75.4989 4.09121V59.7762C75.4989 60.0385 75.4052 60.3009 75.2294 60.4883C75.0536 60.6757 74.8075 60.7756 74.5614 60.7756C74.3153 60.7756 74.0692 60.6757 73.8934 60.4883C73.7177 60.3009 73.6239 60.0385 73.6239 59.7762V36.8641H66.4639C65.667 36.8516 64.8819 36.6642 64.1436 36.3269C63.417 35.9895 62.7491 35.5023 62.1983 34.8902C61.6475 34.2655 61.2022 33.5409 60.9093 32.7539C60.628 31.9543 60.4874 31.1173 60.4991 30.2553L60.546 18.6118C60.5108 14.8639 61.5303 11.2035 63.4639 8.07647C65.3858 4.95073 68.1396 2.50335 71.374 1.04542C71.7255 0.889256 72.1122 0.696864 72.4989 0.809301C72.8974 0.814298 73.2958 0.902998 73.6591 1.0704ZM73.6239 4.08746C73.6356 3.92505 73.6005 3.76139 73.5536 3.60898C73.495 3.45656 73.413 3.31539 73.3075 3.19671C73.202 3.07803 73.0849 2.98183 72.9442 2.91562C72.6982 2.84941 72.6513 2.81193 72.4989 2.80818C72.37 2.81318 72.2411 2.84441 72.1239 2.90063C69.2295 4.1949 66.7568 6.38242 65.0342 9.18085C63.3116 11.978 62.4092 15.2637 62.4444 18.6118L62.3741 30.2678C62.3624 30.8799 62.4678 31.4921 62.6905 32.0543C62.9014 32.6289 63.2178 33.1411 63.628 33.5784C63.9913 33.9782 64.4366 34.303 64.9287 34.5279C65.4092 34.7402 65.9365 34.8527 66.4639 34.8527H73.6239V4.08746ZM16.0037 25.3705C15.1248 26.32 13.9295 26.8447 12.6873 26.8447H9.87486V59.7762C9.87486 60.0385 9.77643 60.3009 9.60065 60.4883C9.42487 60.6757 9.18581 60.7756 8.93738 60.7756C8.68894 60.7756 8.44988 60.6757 8.2741 60.4883C8.09832 60.3009 7.99989 60.0385 7.99989 59.7762V26.8447H5.18743C3.94292 26.8447 2.75114 26.32 1.87225 25.3705C0.993469 24.4335 0.5 23.1593 0.5 21.835V1.80874C0.5 1.54389 0.598776 1.28903 0.774566 1.10164C0.950345 0.914242 1.18882 0.809301 1.43749 0.809301C1.68592 0.809301 1.92498 0.914242 2.10076 1.10164C2.27654 1.28903 2.37497 1.54389 2.37497 1.80874V21.835C2.37614 22.6346 2.67262 23.3966 3.19879 23.9588C3.72612 24.521 4.44096 24.8458 5.18743 24.8458H7.99989V1.80874C7.99989 1.54389 8.09832 1.28903 8.2741 1.10164C8.44988 0.914242 8.68894 0.809301 8.93738 0.809301C9.18581 0.809301 9.42487 0.914242 9.60065 1.10164C9.77643 1.28903 9.87486 1.54389 9.87486 1.80874V24.8458H12.6873C13.4373 24.8458 14.1521 24.521 14.574 23.9588C15.2068 23.3966 15.3943 22.6346 15.4998 21.835V1.80874C15.4998 1.54389 15.5935 1.28903 15.7693 1.10164C15.9451 0.914242 16.1912 0.809301 16.4373 0.809301C16.6834 0.809301 16.9294 0.914242 17.1052 1.10164C17.281 1.28903 17.3748 1.54389 17.3748 1.80874V21.835C17.3748 23.1593 16.8826 24.4335 16.0037 25.3705ZM47.0579 12.3528C49.3313 13.3648 51.3938 14.8389 53.1399 16.7004C54.8859 18.5618 56.257 20.7606 57.2062 23.1967C58.1437 25.6204 58.6241 28.2189 58.6241 30.8549C58.6241 34.8152 57.5226 38.688 55.3547 41.9862C53.3859 45.1719 50.4563 47.8454 46.9173 49.357C43.5775 50.8812 39.8041 51.2685 36.1596 50.4939C32.5152 49.7193 29.1636 47.8079 26.5387 44.997C23.9137 42.1986 22.1325 38.6256 21.4059 34.7403C20.6911 30.8424 21.0661 26.8197 22.4958 23.1593C23.9137 19.4988 26.3277 16.3756 29.4214 14.1768C32.5152 11.978 36.1596 10.8162 39.8744 10.8237C42.3353 10.8262 44.7845 11.3409 47.0579 12.3528ZM51.8039 43.5853C54.9679 40.1997 56.6437 35.6273 56.7492 30.8549C56.7492 27.2819 55.7531 23.7964 53.9016 20.8356C52.0383 17.8622 49.4016 15.551 46.3079 14.1893C43.2142 12.8276 39.8158 12.4777 36.5346 13.0649C33.2534 13.8645 30.2418 15.5885 27.8746 18.1121C25.5074 20.6357 23.902 23.8589 23.2575 27.3569C22.6012 30.8549 22.9411 34.4779 24.2301 37.776C25.5192 41.0617 27.5816 43.8726 30.4761 45.859C33.2534 47.8329 36.5229 48.8823 39.8744 48.8698C44.3509 48.8698 48.6399 46.9584 51.8039 43.5853ZM65.1045 40.8743C65.21 41.1242 65.21 41.399 65.1162 41.6489C62.9014 47.583 58.9054 52.5552 53.7609 55.8284C48.6048 59.0891 42.5931 60.4383 36.6518 59.6887C30.6988 58.9267 25.1559 56.0908 20.8669 51.6308C16.5896 47.1708 13.8123 41.3241 12.9686 35.0026C12.9334 34.8652 12.9334 34.7278 12.9686 34.5903C12.992 34.4654 13.0389 34.328 13.1209 34.2155C13.1912 34.1156 13.285 34.0157 13.3904 33.9407C13.4959 33.8782 13.5193 33.8283 13.7537 33.8033C13.8709 33.6783 13.9998 33.7908 14.1287 33.8283C14.2576 33.8657 14.3631 33.9282 14.4685 34.0157C14.5623 34.1031 14.6443 34.203 14.7146 34.328C14.7732 34.4404 14.8084 34.5778 14.8201 34.7153C15.6052 40.5995 18.0896 46.0464 22.1794 50.1941C26.1637 54.3542 31.3316 56.9903 36.8627 57.6899C42.4056 58.2895 48.0071 57.1402 52.8 54.1044C57.5929 51.0686 61.3077 46.4212 63.3819 40.8993C63.4756 40.5495 63.6514 40.462 63.8858 40.3621C64.1084 40.2497 64.3662 40.2497 64.4951 40.3371C64.8233 40.4495 65.0108 40.6369 65.1045 40.8743ZM20.9724 11.6532C20.82 11.5408 20.7028 11.3909 20.6325 11.201C20.5622 11.0173 20.5388 10.8149 20.5856 10.62C20.6208 10.4252 20.7145 10.2465 20.8435 10.1078C25.6598 5.05941 32.0698 2.10857 38.8197 1.82998C45.5696 1.55263 52.0735 3.96753 57.3468 8.60492C57.5226 8.78108 57.6281 9.02094 57.6398 9.2758C57.6515 9.5319 57.5695 9.78301 57.4171 9.97915C57.2648 10.1753 57.0421 10.3015 56.8078 10.3315C56.5734 10.3614 56.3273 10.2927 56.1398 10.1403C51.3235 5.82274 45.1712 3.574 38.8901 3.8326C32.5034 4.09121 26.6324 6.83967 22.1559 11.5408C22.0622 11.6282 21.9684 11.7032 21.8512 11.7532C21.7458 11.6907 21.6169 11.8281 21.4997 11.8281C21.3122 11.8281 21.1364 11.7657 20.9724 11.6532Z" fill="white"/>
</svg>
