<svg width="76" height="61" viewBox="0 0 76 61" fill="none" xmlns="http://www.w3.org/2000/svg">
<path d="M53.8599 29.6975C51.2442 27.2569 46.9841 27.2569 44.3668 29.6975L36.7961 36.7913C34.1855 39.2272 34.1855 43.1928 36.7961 45.6288L44.3735 52.7194C45.6817 53.94 47.3978 54.5506 49.1192 54.5506C50.8356 54.5506 52.5571 53.9403 53.8649 52.7194L61.4423 45.6288C64.053 43.1928 64.053 39.2272 61.4423 36.7913L53.8599 29.6975ZM59.5534 43.8538L51.976 50.9444C50.4061 52.4092 47.8415 52.4092 46.2725 50.9444L38.6951 43.8538C37.1303 42.3938 37.1303 40.0116 38.6951 38.5506L46.2725 31.46C47.0575 30.7275 48.0944 30.3614 49.1242 30.3614C50.1541 30.3614 51.1907 30.7277 51.976 31.46L59.5534 38.5506C61.1108 40.01 61.1108 42.4006 59.5534 43.8538ZM22.3111 24.5256H33.0283C35.2421 24.5256 37.0473 26.21 37.0473 28.2756V29.5256C37.0473 30.2141 37.6491 30.7756 38.3869 30.7756C39.1248 30.7756 39.7266 30.2141 39.7266 29.5256V28.2756C39.7266 24.8288 36.7224 22.0256 33.0283 22.0256H22.3111C18.617 22.0256 15.6129 24.8288 15.6129 28.2756V38.2756C15.6129 41.7225 18.617 44.5256 22.3111 44.5256H30.3591C31.0969 44.5256 31.6987 43.9641 31.6987 43.2756C31.6987 42.5872 31.0969 42.0256 30.3591 42.0256H22.3111C20.0974 42.0256 18.2989 40.3475 18.2989 38.2819L18.2922 28.2756C18.2922 26.2131 20.1007 24.5256 22.3111 24.5256ZM71.3089 0.775635H5.49349C2.69529 0.775635 0.560224 3.08657 0.937 5.6647L8.97323 53.4303C9.61961 57.51 13.4862 60.7756 18.0912 60.7756H58.7999C63.3564 60.7756 67.2497 57.6444 67.8944 53.4241L75.8771 5.65845C76.0981 3.08657 74.1054 0.775635 71.3089 0.775635ZM68.3951 33.2756H66.3873C65.6475 33.2756 65.0477 33.8353 65.0477 34.5256C65.0477 35.2159 65.6475 35.7756 66.3873 35.7756H67.9775L65.0872 53.0725C64.7781 56.0413 61.8643 58.2756 58.7999 58.2756H18.0912C14.8627 58.2756 12.0846 56.0381 11.6257 53.0366L8.71535 35.7756H10.2712C11.011 35.7756 11.6108 35.2159 11.6108 34.5256C11.6108 33.8353 11.011 33.2756 10.2712 33.2756H8.29503L3.59118 5.3272C3.48736 4.6147 3.83567 4.11782 4.05336 3.88657C4.26603 3.65845 4.73659 3.27563 5.49349 3.27563H71.3206C72.0765 3.27563 72.5474 3.65829 72.761 3.88657C72.9779 4.11845 73.3265 4.61407 73.2298 5.28001L68.3951 33.2756Z" fill="white"/>
</svg>
