<svg width="76" height="61" viewBox="0 0 76 61" fill="none" xmlns="http://www.w3.org/2000/svg">
<path d="M24.875 28.1595C20.7395 28.1595 17.375 31.524 17.375 35.6595C17.375 39.7951 20.7395 43.1595 24.875 43.1595C29.0105 43.1595 32.375 39.7951 32.375 35.6595C32.375 31.5228 29.0117 28.1595 24.875 28.1595ZM24.875 41.2845C21.7695 41.2845 19.25 38.765 19.25 35.6595C19.25 32.5541 21.7695 30.0345 24.875 30.0345C27.9805 30.0345 30.5 32.5541 30.5 35.6595C30.5 38.765 27.9805 41.2845 24.875 41.2845ZM24.875 11.2845C11.4137 11.2845 0.5 22.1947 0.5 35.6595C0.5 49.1244 11.4137 60.0345 24.875 60.0345C38.3363 60.0345 49.25 49.1244 49.25 35.6595C49.25 22.1947 38.3398 11.2845 24.875 11.2845ZM24.875 58.1595C12.4648 58.1595 2.375 48.0662 2.375 35.6595C2.375 23.2529 12.4684 13.1595 24.875 13.1595C37.2816 13.1595 47.375 23.2529 47.375 35.6595C47.375 48.0662 37.2852 58.1595 24.875 58.1595ZM19.25 22.5345C19.25 21.4988 18.4105 20.6595 17.375 20.6595C16.3395 20.6595 15.5 21.5033 15.5 22.5345C15.5 23.57 16.3395 24.4095 17.375 24.4095C18.4105 24.4095 19.25 23.5658 19.25 22.5345ZM9.875 30.0345C8.83906 30.0345 8 30.8783 8 31.9095C8 32.9408 8.83906 33.7845 9.875 33.7845C10.9109 33.7845 11.75 32.9408 11.75 31.9095C11.75 30.8783 10.9109 30.0345 9.875 30.0345ZM28.625 48.7845C27.5938 48.7845 26.75 49.6283 26.75 50.6595C26.75 51.6908 27.5938 52.5345 28.625 52.5345C29.6562 52.5345 30.5 51.6908 30.5 50.6595C30.5 49.6283 29.6562 48.7845 28.625 48.7845ZM36.125 45.0345C35.0938 45.0345 34.25 45.8783 34.25 46.9095C34.25 47.9408 35.0938 48.7845 36.125 48.7845C37.1562 48.7845 38 47.945 38 46.9095C38 45.8783 37.1562 45.0345 36.125 45.0345ZM38 26.2845C36.9688 26.2845 36.125 27.1283 36.125 28.1595C36.125 29.1908 36.9688 30.0345 38 30.0345C39.0312 30.0345 39.875 29.195 39.875 28.1595C39.875 27.1283 39.0312 26.2845 38 26.2845ZM13.625 45.0345C12.5938 45.0345 11.75 45.8783 11.75 46.9095C11.75 47.9408 12.5938 48.7845 13.625 48.7845C14.6562 48.7845 15.5 47.9408 15.5 46.9095C15.5 45.8783 14.6562 45.0345 13.625 45.0345ZM52.3438 29.8939C51.8384 30.0074 51.5198 30.5092 51.6334 31.0145C51.7322 31.4503 52.1204 31.7469 52.5488 31.7469C52.6147 31.7469 52.6843 31.7396 52.7539 31.7249C56.1523 30.9651 58.6203 27.8905 58.6203 24.4136C58.6203 20.2769 55.2547 16.9136 51.1203 16.9136C49.6262 16.9136 48.1801 17.3549 46.9426 18.1886C46.5141 18.4779 46.4006 19.062 46.6899 19.4905C46.9756 19.9209 47.5542 20.0325 47.9895 19.7451C48.9219 19.1127 50 18.7845 51.125 18.7845C54.2305 18.7845 56.75 21.3041 56.75 24.4095C56.75 27.0111 54.8984 29.3197 52.3438 29.8939ZM70.6016 18.2103C70.1438 16.8697 69.0383 15.9873 67.9684 15.1342C67.3421 14.6325 66.752 14.1601 66.3605 13.6435C65.965 13.1217 65.6721 12.4318 65.3645 11.7006C64.87 10.5252 64.3098 9.19158 63.1449 8.37478C61.9951 7.57275 60.5809 7.47572 59.2121 7.38232C58.3845 7.32555 57.5973 7.27246 56.9375 7.06556C56.3186 6.87326 55.6777 6.48326 54.9969 6.0731C53.8789 5.49314 52.6016 4.72205 51.125 4.72205C49.6461 4.72205 48.3711 5.49478 47.2426 6.17634C46.5651 6.5865 45.9242 6.97462 45.309 7.16693C44.6498 7.37201 43.8664 7.42697 43.0344 7.48369C41.6645 7.57707 40.2512 7.67412 39.1051 8.47615C38.3104 9.02728 37.8418 9.8238 37.4832 10.5328C37.25 10.9939 37.4375 11.5576 37.9062 11.7885C38.364 12.0192 38.9316 11.8397 39.166 11.3728C39.4297 10.851 39.7337 10.3254 40.1841 10.0122C40.9055 9.50693 42.0041 9.43181 43.1689 9.35119C44.0698 9.28892 45.0041 9.22673 45.8748 8.95568C46.7061 8.69388 47.4755 8.22877 48.2185 7.77794C49.2266 7.17244 50.1641 6.59705 51.125 6.59705C52.0771 6.59705 53.0258 7.17021 54.0289 7.7783C54.776 8.22876 55.5453 8.69564 56.3832 8.9572C57.2511 9.22814 58.1855 9.29224 59.0855 9.35458C60.2502 9.43332 61.3484 9.50834 62.0703 10.0119C62.7955 10.5191 63.2056 11.4931 63.6383 12.5279C63.9788 13.3336 64.3304 14.1685 64.8688 14.8775C65.3997 15.5788 66.1133 16.1478 66.8023 16.6998C67.6995 17.4176 68.5496 18.0955 68.8273 18.9158C69.0874 19.6848 68.831 20.6865 68.5564 21.747C68.3398 22.6049 68.1055 23.4955 68.1055 24.4095C68.1055 25.3196 68.3362 26.2095 68.5559 27.0697C68.8306 28.1317 69.0869 29.1334 68.8306 29.901C68.5487 30.7268 67.6953 31.4056 66.7939 32.1252C66.1091 32.6745 65.3982 33.2403 64.8673 33.9392C64.329 34.6496 63.9774 35.4826 63.6369 36.29C63.2047 37.3227 62.7945 38.2986 62.0689 38.8037C61.3511 39.3072 60.249 39.3824 59.0841 39.4629C58.1832 39.5251 57.249 39.5892 56.3818 39.8602C55.5542 40.1184 54.7892 40.5653 54.0451 40.9973C53.2613 41.4533 52.5216 41.8854 51.774 42.0703C51.2723 42.1947 50.9647 42.7038 51.0929 43.2074C51.1991 43.634 51.5799 43.9177 52.0011 43.9177C52.0743 43.9177 52.1512 43.9086 52.2282 43.8903C53.2316 43.6394 54.1255 43.1213 54.9891 42.6176C55.6702 42.2202 56.3145 41.8449 56.9415 41.6508C57.597 41.4439 58.3805 41.3908 59.2126 41.3322C60.5825 41.2388 61.9958 41.1418 63.1454 40.3397C64.31 39.5249 64.8704 38.1917 65.3649 37.0163C65.6725 36.2839 65.9655 35.5936 66.361 35.0722C66.7491 34.5595 67.3388 34.0888 67.9653 33.5886C68.9844 32.7767 70.1445 31.851 70.6133 30.5033C71.0491 29.2049 70.7085 27.8806 70.3789 26.601C70.168 25.8158 69.9805 25.0892 69.9805 24.4095C69.9805 23.7338 70.1709 22.9963 70.3723 22.2146C70.707 20.9291 70.9414 19.6166 70.6016 18.2103ZM51.125 0.0345459C44.1559 0.0345459 37.4961 3.04626 32.8672 8.29861C32.5273 8.6865 32.5625 9.27947 32.9492 9.62165C33.3301 9.96408 33.927 9.9274 34.2711 9.53926C38.5508 4.69041 44.6914 1.90955 51.125 1.90955C63.5352 1.90955 73.625 12.0029 73.625 24.4095C73.625 36.8162 63.5316 46.9095 51.125 46.9095C50.9639 46.9095 50.8064 46.8986 50.649 46.8876L50.2461 46.8627C49.7224 46.8956 49.2939 47.249 49.2757 47.7672C49.2574 48.2836 49.6638 48.7194 50.1802 48.7377L50.5208 48.7578C50.7266 48.7728 50.9258 48.7845 51.125 48.7845C64.5664 48.7845 75.5 37.8498 75.5 24.4095C75.5 10.9693 64.5664 0.0345459 51.125 0.0345459Z" fill="white"/>
</svg>
