<svg width="76" height="61" viewBox="0 0 76 61" fill="none" xmlns="http://www.w3.org/2000/svg">
<g clip-path="url(#clip0_695_1195)">
<path d="M61.8313 22.7756H4.40942C3.47632 22.7756 2.57837 23.0686 1.91919 23.5959C1.26001 24.1233 0.893799 24.8381 0.893799 25.5881V49.0256C0.893799 55.2366 7.19263 60.2756 14.9563 60.2756H43.0813C50.845 60.2756 57.1438 55.2366 57.1438 49.0256V45.2756H61.8313C69.5862 45.2756 75.8938 40.2295 75.8938 34.0256C75.8938 27.8217 69.5803 22.7756 61.8313 22.7756ZM54.8 49.0256C54.8 54.1948 49.5427 58.4006 43.0813 58.4006H14.9563C8.49487 58.4006 3.23755 54.1948 3.23755 49.0256V25.5881C3.23755 24.9871 3.84868 24.6506 4.40942 24.6506H54.8V49.0256ZM61.8313 43.4006H57.1438V24.6506H61.8313C68.2927 24.6506 73.55 28.8565 73.55 34.0256C73.55 39.1948 68.2913 43.4006 61.8313 43.4006ZM16.1575 11.0241L17.3935 11.5185C20.0979 12.6506 21.9875 14.9241 21.9875 17.467V18.0881C21.9875 18.6063 22.5117 19.0133 23.1594 19.0133C23.8072 19.0133 24.3313 18.6038 24.3313 18.0881V17.467C24.3313 14.2174 22.074 11.2948 18.4426 9.84399L17.2122 9.34712C14.3733 8.21274 12.6125 5.93579 12.6125 3.40103V1.21313C12.6125 0.694932 12.0881 0.275635 11.4407 0.275635C10.7932 0.275635 10.2688 0.694932 10.2688 1.21313V3.40103C10.2688 6.64946 12.5261 9.56978 16.1575 11.0241ZM34.9075 11.0241L36.1435 11.5185C38.8479 12.6506 40.7375 14.9241 40.7375 17.467V18.0881C40.7375 18.6038 41.2649 19.0256 41.9094 19.0256C42.554 19.0256 43.0813 18.6038 43.0813 18.0881V17.467C43.0813 14.2174 40.824 11.2948 37.1926 9.84399L35.9622 9.34712C33.1204 8.21274 31.3625 5.93579 31.3625 3.40103V1.21313C31.3625 0.694932 30.8384 0.287939 30.1907 0.287939C29.5429 0.287939 29.0188 0.694932 29.0188 1.21313V3.40103C29.0188 6.64946 31.2747 9.56978 34.9075 11.0241Z" fill="white"/>
</g>
<defs>
<clipPath id="clip0_695_1195">
<rect width="75" height="60" fill="white" transform="translate(0.893799 0.275635)"/>
</clipPath>
</defs>
</svg>
