<svg width="126" height="167" viewBox="0 0 126 167" fill="none" xmlns="http://www.w3.org/2000/svg">
<path fill-rule="evenodd" clip-rule="evenodd" d="M12.432 101.068L77.8077 94.77L4.36902 86.804C6.43932 91.9257 9.15928 96.7149 12.432 101.068Z" fill="#D6727F"/>
<path fill-rule="evenodd" clip-rule="evenodd" d="M3.91931 85.6586L83.2079 94.2601L83.2018 95.3432L13.2132 102.085C9.34187 97.1483 6.19359 91.6197 3.91931 85.6586Z" fill="#D37130"/>
<path fill-rule="evenodd" clip-rule="evenodd" d="M19.3793 108.876L95.697 117.154C86.1471 122.959 74.9338 126.302 62.9403 126.302C46.0515 126.303 30.7109 119.674 19.3793 108.876Z" fill="#CF8B6E"/>
<path fill-rule="evenodd" clip-rule="evenodd" d="M101.029 113.526L21.6821 104.919L103.642 97.0239L115.414 98.3018C111.494 104.139 106.625 109.288 101.029 113.526Z" fill="#7B3E2D"/>
<path fill-rule="evenodd" clip-rule="evenodd" d="M117.854 94.359L31.1566 84.9549L124.165 78.6981C122.758 84.2471 120.62 89.5045 117.854 94.359Z" fill="#CF8B6E"/>
<path fill-rule="evenodd" clip-rule="evenodd" d="M125.088 74.4412L7.29501 82.3665L2.60163 81.8576C1.29112 77.6262 0.417101 73.2021 0.0234375 68.6423L126 66.6108C125.857 69.2675 125.55 71.8814 125.088 74.4412Z" fill="#EC9C1E"/>
<path fill-rule="evenodd" clip-rule="evenodd" d="M27.9042 64.0163C74.5422 63.2647 97.8612 62.8883 97.8612 62.8883C98.2487 49.9964 91.5177 37.9356 80.3441 31.4941C69.1696 25.0527 55.3597 25.2751 44.3983 32.0734C33.438 38.8718 27.1006 51.1437 27.9042 64.0163ZM32.9484 63.9337C32.261 52.9182 37.6836 42.4178 47.0632 36.6006C56.4428 30.7833 68.2599 30.5936 77.822 36.1049C87.3832 41.6162 93.1423 51.9361 92.8108 62.9679C92.8098 62.9679 72.8553 63.2902 32.9484 63.9337Z" fill="#F07C02"/>
<path fill-rule="evenodd" clip-rule="evenodd" d="M24.2552 54.912C23.8534 57.1608 23.6443 59.4759 23.6443 61.8409C23.6443 62.5946 23.6657 63.3412 23.7086 64.0846L0.0540553 64.4671C0.0183604 63.5961 0 62.7211 0 61.842C0 58.4703 0.266182 55.1609 0.777129 51.932C1.16365 49.773 1.66236 47.6527 2.26407 45.5753L24.2552 54.912Z" fill="#BB631B"/>
<path fill-rule="evenodd" clip-rule="evenodd" d="M30.8354 39.2053C28.3693 42.6871 26.4581 46.589 25.2282 50.7806L3.56342 41.5826C5.79894 35.4288 8.96559 29.7217 12.89 24.6295L30.8354 39.2053Z" fill="#F07C02"/>
<path fill-rule="evenodd" clip-rule="evenodd" d="M44.3218 27.278C40.9267 29.1015 37.8325 31.4115 35.1299 34.1141C34.5445 34.7006 33.9754 35.3063 33.4278 35.9274L15.5466 21.4057C20.4623 15.8281 26.3459 11.1246 32.9362 7.55814L44.3218 27.278Z" fill="#FE9014"/>
<path fill-rule="evenodd" clip-rule="evenodd" d="M62.1244 22.6357C57.1792 22.7265 52.4562 23.732 48.1208 25.4923L36.6882 5.69082C44.4503 2.13764 53.0569 0.115274 62.1244 3.05176e-05V22.6357Z" fill="#FE9E32"/>
<path fill-rule="evenodd" clip-rule="evenodd" d="M81.8321 27.5188C77.1622 24.9304 71.9079 23.268 66.3171 22.7795V0.0795593C76.0445 0.592546 85.1854 3.30536 93.2565 7.73153L81.8321 27.5188Z" fill="#FEAB4E"/>
<path fill-rule="evenodd" clip-rule="evenodd" d="M93.8501 37.8183C92.8394 36.5159 91.7471 35.2778 90.5835 34.1142C88.9803 32.511 87.2383 31.0464 85.3792 29.739L96.8556 9.86099C103.579 14.1505 109.436 19.6791 114.106 26.1226L93.8501 37.8183Z" fill="#FEBB6D"/>
<path fill-rule="evenodd" clip-rule="evenodd" d="M100.643 51.3293C99.6469 47.7424 98.1539 44.3616 96.2426 41.2664L116.453 29.5972C119.296 34.1223 121.583 39.0319 123.213 44.2311C124.1 47.2764 124.763 50.4175 125.183 53.6362L100.643 51.3293Z" fill="#FFC787"/>
<path fill-rule="evenodd" clip-rule="evenodd" d="M125.71 62.4386L102.057 62.82C102.065 62.4937 102.069 62.1673 102.069 61.841C102.069 59.7207 101.901 57.6402 101.577 55.6107L125.59 57.8686C125.672 59.1822 125.713 60.506 125.713 61.841L125.71 62.4386Z" fill="#FFC787"/>
<path fill-rule="evenodd" clip-rule="evenodd" d="M39.038 63.8399C70.8197 63.3269 86.7111 63.0709 86.7111 63.0709C86.9753 54.2859 82.3879 46.0669 74.7747 41.6774C67.1595 37.2879 57.7482 37.4399 50.2788 42.0721C42.8084 46.7043 38.4903 55.0681 39.038 63.8399Z" fill="#ED5917"/>
<path d="M19.1806 161.072C19.2526 161.072 19.4686 160.964 19.5766 160.856V159.848C19.5766 155.096 19.2526 150.38 19.2526 145.556V144.584L19.3606 144.404C19.9726 144.584 19.8646 145.664 19.9726 146.168C20.4766 149.264 20.9806 151.964 21.3766 154.988C21.6646 156.86 22.0606 158.876 22.2766 160.748L22.4566 160.964H24.1846C24.1846 160.964 24.3646 160.856 24.3646 160.748C24.3646 160.676 24.4726 160.244 24.4726 160.172L24.5806 159.668C24.5806 159.56 24.7966 158.264 24.7966 158.192C24.8686 157.184 25.0846 156.248 25.1926 155.276C25.5886 152.072 26.0566 148.76 26.4526 145.556C26.4526 145.484 26.5606 145.052 26.5606 144.98C26.5606 144.764 26.6686 144.764 26.7766 144.764C26.8486 144.764 26.9566 144.764 26.9566 144.872L27.0646 146.276V160.46C27.0646 160.676 27.1726 160.964 27.3526 161.072C27.7846 161.072 29.8726 161.18 30.2686 161.18H30.3766C30.5566 161.18 30.8806 160.856 30.8806 160.568V159.776C30.8806 157.184 30.8806 154.664 30.6646 152.072L30.4486 137.492L30.3766 136.088C30.3766 135.98 30.1606 135.8 30.0526 135.8H25.1926C24.5806 135.8 24.0766 146.384 23.4646 146.384C23.2846 146.384 23.2846 146.276 23.1766 146.096C22.6726 143.396 22.0606 140.012 21.6646 137.276C21.6646 136.88 21.5566 136.088 21.3766 135.8L21.1606 135.692H18.3526C18.0646 135.692 16.8766 135.8 16.5886 135.8C16.2646 135.908 16.1926 135.98 16.1926 136.304V136.592C16.1926 136.88 16.2646 139.292 16.2646 139.58C16.3726 145.772 16.3726 151.892 16.4806 158.084V159.668C16.4806 159.776 16.5886 160.46 16.6966 160.676C16.6966 160.676 16.7686 160.964 16.8766 160.964L19.1806 161.072ZM52.5098 151.316C52.5098 152.924 52.2938 154.352 51.8618 155.6C51.4538 156.824 50.8538 157.868 50.0618 158.732C49.2938 159.596 48.3458 160.256 47.2178 160.712C46.1138 161.144 44.8778 161.36 43.5098 161.36C42.2378 161.36 41.0618 161.144 39.9818 160.712C38.9018 160.256 37.9658 159.596 37.1738 158.732C36.3818 157.868 35.7578 156.824 35.3018 155.6C34.8698 154.352 34.6538 152.924 34.6538 151.316C34.6538 149.18 35.0138 147.38 35.7338 145.916C36.4538 144.428 37.4858 143.3 38.8298 142.532C40.1738 141.74 41.7698 141.344 43.6178 141.344C45.3698 141.344 46.9058 141.74 48.2258 142.532C49.5698 143.3 50.6138 144.428 51.3578 145.916C52.1258 147.38 52.5098 149.18 52.5098 151.316ZM37.9298 151.316C37.9298 152.828 38.1218 154.148 38.5058 155.276C38.9138 156.38 39.5378 157.232 40.3778 157.832C41.2178 158.432 42.2858 158.732 43.5818 158.732C44.8778 158.732 45.9458 158.432 46.7858 157.832C47.6258 157.232 48.2378 156.38 48.6218 155.276C49.0298 154.148 49.2338 152.828 49.2338 151.316C49.2338 149.78 49.0298 148.472 48.6218 147.392C48.2138 146.312 47.5898 145.484 46.7498 144.908C45.9338 144.308 44.8658 144.008 43.5458 144.008C41.5778 144.008 40.1498 144.656 39.2618 145.952C38.3738 147.248 37.9298 149.036 37.9298 151.316ZM48.9098 136.628V139.184H38.2178V136.628H48.9098ZM56.2347 160.784L56.4147 160.964C57.2787 160.964 59.4027 161.396 59.6547 160.748C59.6547 159.92 59.5107 158.948 59.5107 157.868C59.5107 157.472 59.4027 154.196 59.4027 153.8C59.4027 153.224 59.5107 150.488 59.5107 149.948C59.5107 149.66 59.6907 149.48 59.9787 149.48C62.4627 149.48 62.3547 152.648 62.3547 155.06C62.3547 156.284 62.3187 157.472 62.3187 158.336C62.3187 160.316 62.6427 160.604 62.9667 160.892C63.9387 160.964 64.6947 160.928 65.5947 160.928C66.2427 160.928 66.2787 161 66.4227 160.496C66.2067 159.92 65.8107 159.056 65.8107 158.084C65.8107 155.456 65.5947 151.604 65.2707 150.2C65.0187 149.084 64.4427 148.724 63.7587 148.256V147.968C65.5227 145.88 65.8107 144.152 65.8107 141.812C65.8107 139.868 65.6307 137.816 63.9387 136.484C63.4347 136.124 62.2467 135.908 61.6707 135.836C59.9787 135.692 58.2867 135.728 56.5947 135.728C55.9827 135.872 56.1267 136.772 56.1267 137.24C56.1267 139.976 56.2347 142.676 56.2347 145.412C56.2347 146.744 56.1267 157.868 56.1267 159.164C56.1267 159.524 56.1627 160.676 56.2347 160.784ZM59.7987 146.636L59.6187 146.456V139.184L59.8707 138.896H61.2027C62.0307 139.076 62.2467 140.3 62.2467 140.984C62.2467 142.604 62.1387 144.188 62.0667 145.808C61.4907 146.78 60.6627 146.636 59.7987 146.636ZM69.3095 160.316C69.3095 160.496 69.3095 160.856 69.5975 160.856C70.1735 160.856 72.8015 160.892 73.3775 160.892C73.7375 160.892 76.4735 161.036 76.8695 161.036H77.1575C77.2295 161 77.3375 161 77.3375 161C77.4095 161 77.5175 160.82 77.5175 160.82L77.4455 157.76L73.0535 157.832C72.9455 157.832 72.7655 157.652 72.7655 157.58V156.932C72.7655 156.86 72.7295 156.392 72.7295 156.392C72.7295 155.384 72.8375 151.496 72.8375 150.848C72.8015 150.668 72.9095 149.948 72.9095 149.768C73.0895 149.48 73.2695 149.48 73.6655 149.48C74.2775 149.48 74.9255 149.552 75.5735 149.552C75.7535 149.516 76.2215 149.516 76.1855 149.264C76.1855 149.084 76.2935 148.148 76.2935 147.968C76.2935 147.968 76.2575 147.428 76.2575 147.212V146.6C76.1855 146.312 76.0775 146.312 75.8975 146.312C75.1415 146.348 74.3495 146.456 73.5935 146.456C73.3055 146.456 73.0535 146.456 72.8375 146.168V145.376C72.8015 143.432 72.9455 141.02 72.9815 139.004C73.0895 138.752 73.2695 138.644 73.5575 138.644C74.6375 138.608 75.6815 138.68 76.7975 138.68H77.1575L77.3375 138.5C77.3375 138.5 77.3735 137.276 77.3735 136.736V136.556C77.3735 136.34 77.2655 135.8 77.2655 135.8L77.0855 135.728C77.0855 135.728 72.6935 135.62 70.8575 135.692H69.6335L69.4535 135.872V136.52C69.4895 137.42 69.4175 144.908 69.4175 145.808C69.4175 150.56 69.3815 155.348 69.3095 160.136V160.316ZM80.2799 160.676C81.1079 161.108 82.0439 161.108 82.9439 161C83.2319 161 83.6279 160.604 83.6279 160.28C83.5919 156.752 83.4839 151.28 83.5199 147.716L83.6279 147.608H83.6999C84.1679 148.04 86.7239 158.084 86.9759 160.316C86.9759 160.424 87.0839 160.712 87.1919 160.82C87.2639 160.928 87.5159 161.108 87.5159 161.108L91.3679 161.036L91.5479 160.856C91.5479 160.856 91.7999 148.724 91.7999 143.504C91.7639 141.344 91.8359 139.256 91.7999 137.096V136.232C91.6919 136.052 91.5839 135.836 91.2959 135.836L88.5239 135.872L88.3439 136.088C88.3799 137.456 88.4879 143.756 88.4879 145.124C88.4879 145.52 88.5599 148.796 88.5959 149.192C88.5959 149.588 88.6319 151.46 88.6319 151.856C88.6319 151.964 88.5239 151.964 88.4159 151.964C88.2359 152 88.1279 151.784 88.1279 151.604C88.1279 151.496 88.0199 151.1 88.0199 150.992C88.0199 150.812 87.8039 150.02 87.6959 149.84C86.8679 147.068 85.9319 144.512 85.1759 141.776C84.8879 140.516 84.5639 139.328 84.2039 138.032C84.1679 135.368 82.4399 135.764 80.5679 135.836C80.2439 135.836 80.1719 136.412 80.1719 136.628C80.2079 144.116 80.3159 151.712 80.2439 159.164C80.2439 159.164 80.2799 159.776 80.2799 159.884V160.676ZM97.1678 161.072C98.1398 161.072 97.5998 156.824 98.3198 156.824H101.416C101.596 156.968 101.92 159.452 101.92 160.208C101.92 160.532 101.92 161.18 102.28 161.18H105.412L105.52 161.072C105.52 160.208 105.304 159.416 105.232 158.552C105.16 158.048 104.332 152.864 104.044 149.624C104.044 149.552 103.936 149.156 103.936 149.048L103.36 144.296C103.216 143.324 102.964 142.244 102.892 141.272C102.604 139.472 102.532 137.636 101.992 135.872C100.696 135.764 99.3998 135.836 98.2118 135.836C98.0678 136.052 97.4558 139.22 97.4558 140.12C97.3478 140.876 97.0238 141.668 96.9518 142.424C96.7718 144.296 96.3758 146.06 96.1958 147.896C95.5838 151.712 95.2598 155.6 94.7558 159.416C94.7558 159.524 94.5398 160.388 94.5398 160.496C94.5398 160.604 94.4678 160.964 94.6478 160.964C94.9358 160.964 96.5918 161.072 96.8798 161.072H97.1678ZM98.6078 153.8C98.4998 153.764 98.3558 153.62 98.4278 153.404C98.4278 152.756 98.6078 152.072 98.7158 151.388C99.0038 149.156 99.5438 147.104 99.5798 144.656C99.5798 144.584 99.6878 144.368 99.8678 144.368C100.192 144.368 100.696 150.38 100.732 150.344C100.732 153.476 101.2 153.224 101.02 153.692L100.948 153.8H98.6078Z" fill="#7B3E2D"/>
</svg>
