<svg width="73" height="83" viewBox="0 0 73 83" fill="none" xmlns="http://www.w3.org/2000/svg">
<path d="M19.058 10.4657L23.5786 3.21986C24.7489 1.34509 26.8008 0.206116 29.013 0.206116H43.8573C46.0695 0.206116 48.1214 1.34509 49.2916 3.21986L53.8122 10.4657H71.0611C71.7664 10.4657 72.3435 11.0396 72.3435 11.7481C72.3435 12.4566 71.7664 13.0305 71.0611 13.0305H1.80918C1.10095 13.0305 0.526733 12.4566 0.526733 11.7481C0.526733 11.0396 1.10095 10.4657 1.80918 10.4657H19.058ZM22.0718 10.4657H50.7985L47.1115 4.57925C46.4061 3.4539 45.1718 2.771 43.8573 2.771H29.013C27.6985 2.771 26.4641 3.4539 25.7588 4.57925L22.0718 10.4657ZM6.93895 18.1603C7.6475 18.1603 8.22139 18.7374 8.22139 19.4428V70.7405C8.22139 75.6939 12.2402 79.7176 17.1985 79.7176H55.6718C60.6252 79.7176 64.6489 75.6939 64.6489 70.7405V19.4428C64.6489 18.7374 65.226 18.1603 65.9313 18.1603C66.6367 18.1603 67.2138 18.7374 67.2138 19.4428V70.7405C67.2138 77.1206 62.0519 82.2824 55.6718 82.2824H17.1985C10.8247 82.2824 5.6565 77.1206 5.6565 70.7405V19.4428C5.6565 18.7374 6.2304 18.1603 6.93895 18.1603ZM22.3283 66.8931C22.3283 67.5985 21.7512 68.1756 21.0458 68.1756C20.3405 68.1756 19.7634 67.5985 19.7634 66.8931V25.855C19.7634 25.1496 20.3405 24.5725 21.0458 24.5725C21.7512 24.5725 22.3283 25.1496 22.3283 25.855V66.8931ZM37.7176 66.8931C37.7176 67.5985 37.1405 68.1756 36.4351 68.1756C35.7298 68.1756 35.1527 67.5985 35.1527 66.8931V25.855C35.1527 25.1496 35.7298 24.5725 36.4351 24.5725C37.1405 24.5725 37.7176 25.1496 37.7176 25.855V66.8931ZM53.1069 66.8931C53.1069 67.5985 52.5298 68.1756 51.8244 68.1756C51.1191 68.1756 50.542 67.5985 50.542 66.8931V25.855C50.542 25.1496 51.1191 24.5725 51.8244 24.5725C52.5298 24.5725 53.1069 25.1496 53.1069 25.855V66.8931Z" fill="black"/>
</svg>
