<svg width="21" height="20" viewBox="0 0 21 20" fill="none" xmlns="http://www.w3.org/2000/svg">
<path d="M5.68745 2.5L6.94638 0.734375C7.27227 0.277539 7.8437 0 8.45977 0H12.5937C13.2098 0 13.7812 0.277539 14.1071 0.734375L15.366 2.5H20.1696C20.366 2.5 20.5267 2.63984 20.5267 2.8125C20.5267 2.98516 20.366 3.125 20.1696 3.125H0.883876C0.686644 3.125 0.526733 2.98516 0.526733 2.8125C0.526733 2.63984 0.686644 2.5 0.883876 2.5H5.68745ZM6.52673 2.5H14.5267L13.4999 1.06563C13.3035 0.791406 12.9598 0.625 12.5937 0.625H8.45977C8.0937 0.625 7.74995 0.791406 7.55352 1.06563L6.52673 2.5ZM2.31245 4.375C2.50977 4.375 2.66959 4.51562 2.66959 4.6875V17.1875C2.66959 18.3945 3.78879 19.375 5.16959 19.375H15.8839C17.2633 19.375 18.3839 18.3945 18.3839 17.1875V4.6875C18.3839 4.51562 18.5446 4.375 18.741 4.375C18.9374 4.375 19.0982 4.51562 19.0982 4.6875V17.1875C19.0982 18.7422 17.6607 20 15.8839 20H5.16959C3.39459 20 1.9553 18.7422 1.9553 17.1875V4.6875C1.9553 4.51562 2.11513 4.375 2.31245 4.375ZM6.59816 16.25C6.59816 16.4219 6.43745 16.5625 6.24102 16.5625C6.04459 16.5625 5.88388 16.4219 5.88388 16.25V6.25C5.88388 6.07812 6.04459 5.9375 6.24102 5.9375C6.43745 5.9375 6.59816 6.07812 6.59816 6.25V16.25ZM10.8839 16.25C10.8839 16.4219 10.7232 16.5625 10.5267 16.5625C10.3303 16.5625 10.1696 16.4219 10.1696 16.25V6.25C10.1696 6.07812 10.3303 5.9375 10.5267 5.9375C10.7232 5.9375 10.8839 6.07812 10.8839 6.25V16.25ZM15.1696 16.25C15.1696 16.4219 15.0089 16.5625 14.8124 16.5625C14.616 16.5625 14.4553 16.4219 14.4553 16.25V6.25C14.4553 6.07812 14.616 5.9375 14.8124 5.9375C15.0089 5.9375 15.1696 6.07812 15.1696 6.25V16.25Z" fill="white"/>
</svg>
